<?xml version="1.0" encoding="utf-8"?>
<!-- Generator: Adobe Illustrator 19.0.0, SVG Export Plug-In . SVG Version: 6.00 Build 0)  -->
<svg version="1.1" id="Layer_1" xmlns="http://www.w3.org/2000/svg" xmlns:xlink="http://www.w3.org/1999/xlink" x="0px" y="0px"
	 viewBox="0 0 90.17 32" style="enable-background:new 0 0 90.17 32;" xml:space="preserve">
<g id="XMLID_28_">
	<path id="XMLID_29_" d="M0,24V0h4v22.67L2.67,24H0z"/>
	<path id="XMLID_31_" d="M4.83,26.67l8-8l-5.33-5.33V12l2-2l6,6l6-6l2,2v1.34L4.83,32V26.67z M12.82,8l6.67-6.67v5.33l-4,4L12.82,8z
		"/>
	<path id="XMLID_34_" d="M26.26,24V10.67h12l2.67,2.67V24l-4-4v-5.33h-6.67V24H26.26z"/>
	<path id="XMLID_36_" d="M43.7,18.67l7.33-7.33l2,2v1.34L43.7,24V18.67z M55.7,9.33L54.36,8l6.67-6.67v5.33l-2.67,2.67H55.7z"/>
	<path id="XMLID_39_" d="M55.4,24V10.67h12l2.67,2.67V24l-4-4v-5.33H59.4V24H55.4z"/>
	<path id="XMLID_41_" d="M72.84,22.67l5.33-5.33L72.84,12l2.67-2.67l5.33,5.34l5.33-5.34L88.83,12l-5.33,5.34l5.33,5.33l-2.67,2.66
		L80.84,20l-5.33,5.33L72.84,22.67z"/>
</g>
</svg>
